<svg id="Layer_1" enable-background="new 0 0 512 512" height="512" viewBox="0 0 512 512" width="512" xmlns="http://www.w3.org/2000/svg"><g><path d="m432 352c-17.645 0-32-14.355-32-32v-112c0-38.558-15.043-74.783-42.357-102.002-16.839-16.78-37.087-28.878-59.176-35.662 3.526-6.676 5.533-14.274 5.533-22.336 0-26.467-21.533-48-48-48s-48 21.533-48 48c0 8.108 2.028 15.749 5.593 22.453-58.745 18.349-101.593 73.757-101.593 138.937v110.61c0 17.645-14.355 32-32 32-8.836 0-16 7.164-16 16v64c0 8.836 7.164 16 16 16h120.575c-.374 2.629-.575 5.299-.575 8 0 30.878 25.122 56 56 56s56-25.122 56-56c0-2.701-.2-5.371-.575-8h120.575c8.836 0 16-7.164 16-16v-64c0-8.836-7.164-16-16-16zm-176-320c8.822 0 16 7.178 16 16s-7.178 16-16 16-16-7.178-16-16 7.178-16 16-16zm-80 176c-8.836 0-16-7.164-16-16 0-44.112 35.888-80 80-80 8.836 0 16 7.164 16 16s-7.164 16-16 16c-26.467 0-48 21.533-48 48 0 8.836-7.164 16-16 16zm104 248c0 13.234-10.766 24-24 24s-24-10.766-24-24c0-2.765.462-5.458 1.361-8h45.277c.9 2.542 1.362 5.235 1.362 8z"/></g></svg>